<?xml version="1.0" encoding="UTF-8"?>
<svg id="Capa_2" data-name="Capa 2" xmlns="http://www.w3.org/2000/svg" xmlns:xlink="http://www.w3.org/1999/xlink" viewBox="0 0 328.16 341.86">
  <defs>
    <style>
      .cls-1 {
        clip-path: url(#clippath-4);
      }

      .cls-2 {
        fill: none;
      }

      .cls-3 {
        fill: #9deffe;
      }

      .cls-4 {
        clip-path: url(#clippath-1);
      }

      .cls-5 {
        clip-path: url(#clippath-5);
      }

      .cls-6 {
        fill: #003d7e;
      }

      .cls-7 {
        clip-path: url(#clippath-3);
      }

      .cls-8 {
        fill: #feb520;
      }

      .cls-9 {
        fill: #1b9db3;
      }

      .cls-10 {
        clip-path: url(#clippath-2);
      }

      .cls-11 {
        clip-path: url(#clippath);
      }
    </style>
    <clipPath id="clippath">
      <polygon class="cls-2" points=".58 170.93 327.56 170.36 327.56 337.95 .58 337.95 .58 170.93"/>
    </clipPath>
    <clipPath id="clippath-1">
      <rect class="cls-2" x=".58" width="163.49" height="337.95"/>
    </clipPath>
    <clipPath id="clippath-2">
      <rect class="cls-2" x="164.07" width="163.49" height="337.95"/>
    </clipPath>
    <clipPath id="clippath-3">
      <polygon class="cls-2" points=".58 170.93 327.56 170.36 326.98 2.77 0 3.91 .58 170.93"/>
    </clipPath>
    <clipPath id="clippath-4">
      <rect class="cls-2" x=".59" y="3.62" width="163.49" height="337.95" transform="translate(-.6 .29) rotate(-.2)"/>
    </clipPath>
    <clipPath id="clippath-5">
      <rect class="cls-2" x="164.08" y="3.05" width="163.49" height="337.95" transform="translate(-.6 .86) rotate(-.2)"/>
    </clipPath>
  </defs>
  <g id="Capa_1-2" data-name="Capa 1">
    <g id="_Repetición_de_espejo_" data-name="&amp;lt;Repetición de espejo&amp;gt;">
      <g class="cls-11">
        <g>
          <g id="_Repetición_de_espejo_-2" data-name="&amp;lt;Repetición de espejo&amp;gt;">
            <g class="cls-4">
              <g>
                <path class="cls-6" d="M258.01,31.2c23.27,37.98,42.39,79.65,65,118.09,7.38,17.18,5.16,30.18-2.92,46.27-18.66,37.15-41.91,73.03-60.65,110.21-9.06,16.51-25.84,30.01-45.1,31.73-10.18.91-21.34-.65-31.62-.01.35-2.8,2.79-20.44,3.77-21.48.85-.9,18.18-.17,21.07-.4,14.78-1.21,25.27-8.51,32.52-21.17,18.57-36.92,41.76-71.89,60.07-108.88,6.47-13.07,7.01-17.95.46-31.36-18.73-38.38-43.71-75.44-62.56-113.97-5.03-9.62-16.23-15.62-26.89-16.45-30.32-2.35-63.63,1.8-94.26,0-14.78,1.38-21.96,8.76-29.19,20.6-17.08,27.94-33.74,60.61-49.38,89.68-4.67,8.69-15.18,25.37-15.45,34.64-.26,8.97,8.64,23.36,13.02,31.51,16.79,31.22,35.06,65.61,53.32,95.8,6.05,10.01,15.58,18.03,27.71,19.21,6.87.67,15.7-.95,22.26.01.84.12,1.75.08,2.01,1.15l3.49,21.05c-12.91.32-28.19,1.64-40.69-1.73-13.27-3.58-23.95-13.01-31.57-24.09-19.81-36.67-41.41-72.53-60.78-109.41-19.69-37.49-10.56-44.98,7.6-78.87,17.37-32.42,36.01-64.17,53.18-96.71C82.88,9.76,98.06,2.22,117.69,1.12c27.59-1.54,64.65-1.45,92.27,0,24.92,1.31,35.64,9.84,48.05,30.08Z"/>
                <path class="cls-8" d="M289.54,168.24c1.56,2.24-.23,4.46-2.48,5.04-47.2,11.11-94.69,2.51-108.45,60.13-6.83,28.58-8.09,58.63-13.26,87.43-2.54.87-3.08.63-3.68-1.85-3.5-14.56-4.09-35.57-6.45-51.19-7.58-50.04-9.43-74.05-63.94-85.55-7.22-1.52-50.27-7.72-52.7-9.73-1.57-1.3-1.9-2.86-.39-4.39,1.91-1.95,46.6-8.53,53.56-10.05,51.93-11.34,54.92-31.24,62.84-78.7,1.56-9.34,2.9-29.86,5.57-37.36,1.62-4.54,6.4-3.45,7.66,1.26,7.78,28.97,3.12,71.87,25.61,95.25,22.58,23.47,64.06,19.78,92.65,28.21.89.26,2.93.77,3.45,1.51Z"/>
                <path class="cls-9" d="M209.55,38.11c7.31.78,13.46,5.33,17.22,11.41,18.12,29.32,32.18,61.44,50.38,90.76.62,1.68,3.31,4.47,0,4.81-4.37.45-19.5-2.41-22.46-6.6l-43.73-78.73c-3.16-5.43-15.87-1.32-18.72-3.94-.62-.57-3.95-15.31-3.85-16.41.04-.47.63-1.3.89-1.3,6.21,0,14.33-.63,20.28,0Z"/>
                <path class="cls-3" d="M117.71,301.71c-6.21-.79-12.63-5.94-15.87-11.16l-52.54-94.19c-.24-.5-.31-1.07.21-1.42,1.35-.91,23.29,1.98,24.26,6.79l42.17,76.22c6.41,8.67,16.56,3.05,19.67,5.47,1.13.88,3.68,15.83,3.77,18.3-6.79-.63-15.06.84-21.67,0Z"/>
                <path class="cls-9" d="M138.78,38.11c.82.36.56,1.46.56,2.12,0,1.29-2.84,15.13-3.36,15.75-1.34,1.59-10.64.5-13.39.92-4.87.75-6.78,4.58-9.14,8.37-14.2,22.78-25.1,49.62-39.68,72.43-3.02,5.17-17.69,7.91-22.86,7.39-1.49-.15-2.24-.21-1.57-2l53.05-94.86c2.76-5.15,10.13-10.13,16.11-10.13,2.71,0,19.3-.42,20.28,0Z"/>
                <path class="cls-9" d="M233.05,278.49c-6.7,11.27-10.09,21.03-24.75,22.76-2.43.29-19.18.95-19.86.08-.59-.76,2.75-17.78,4.82-18.3,5.4-1.34,13.99,2.36,18.24-4.42l43.36-77.5c1.05-3.88,22.23-6.43,23.28-5.76.62.39.25.62.21,1.02-.07.81-6.56,12.41-7.57,14.31-11.9,22.46-24.77,46-37.74,67.82Z"/>
              </g>
            </g>
          </g>
          <g id="_Repetición_de_espejo_-3" data-name="&amp;lt;Repetición de espejo&amp;gt;">
            <g class="cls-10">
              <g>
                <path class="cls-6" d="M70.13,31.2C46.86,69.18,27.74,110.85,5.13,149.29c-7.38,17.18-5.16,30.18,2.92,46.27,18.66,37.15,41.91,73.03,60.65,110.21,9.06,16.51,25.84,30.01,45.1,31.73,10.18.91,21.34-.65,31.62-.01-.35-2.8-2.79-20.44-3.77-21.48-.85-.9-18.18-.17-21.07-.4-14.78-1.21-25.27-8.51-32.52-21.17-18.57-36.92-41.76-71.89-60.07-108.88-6.47-13.07-7.01-17.95-.46-31.36,18.73-38.38,43.71-75.44,62.56-113.97,5.03-9.62,16.23-15.62,26.89-16.45,30.32-2.35,63.63,1.8,94.26,0,14.78,1.38,21.96,8.76,29.19,20.6,17.08,27.94,33.74,60.61,49.38,89.68,4.67,8.69,15.18,25.37,15.45,34.64.26,8.97-8.64,23.36-13.02,31.51-16.79,31.22-35.06,65.61-53.32,95.8-6.05,10.01-15.58,18.03-27.71,19.21-6.87.67-15.7-.95-22.26.01-.84.12-1.75.08-2.01,1.15l-3.49,21.05c12.91.32,28.19,1.64,40.69-1.73,13.27-3.58,23.95-13.01,31.57-24.09,19.81-36.67,41.41-72.53,60.78-109.41,19.69-37.49,10.56-44.98-7.6-78.87-17.37-32.42-36.01-64.17-53.18-96.71-10.46-16.85-25.64-24.4-45.28-25.49-27.59-1.54-64.65-1.45-92.27,0-24.92,1.31-35.64,9.84-48.05,30.08Z"/>
                <path class="cls-8" d="M38.6,168.24c-1.56,2.24.23,4.46,2.48,5.04,47.2,11.11,94.69,2.51,108.45,60.13,6.83,28.58,8.09,58.63,13.26,87.43,2.54.87,3.08.63,3.68-1.85,3.5-14.56,4.09-35.57,6.45-51.19,7.58-50.04,9.43-74.05,63.94-85.55,7.22-1.52,50.27-7.72,52.7-9.73,1.57-1.3,1.9-2.86.39-4.39-1.91-1.95-46.6-8.53-53.56-10.05-51.93-11.34-54.92-31.24-62.84-78.7-1.56-9.34-2.9-29.86-5.57-37.36-1.62-4.54-6.4-3.45-7.66,1.26-7.78,28.97-3.12,71.87-25.61,95.25-22.58,23.47-64.06,19.78-92.65,28.21-.89.26-2.93.77-3.45,1.51Z"/>
                <path class="cls-9" d="M118.59,38.11c-7.31.78-13.46,5.33-17.22,11.41-18.12,29.32-32.18,61.44-50.38,90.76-.62,1.68-3.31,4.47,0,4.81,4.37.45,19.5-2.41,22.46-6.6l43.73-78.73c3.16-5.43,15.87-1.32,18.72-3.94.62-.57,3.95-15.31,3.85-16.41-.04-.47-.63-1.3-.89-1.3-6.21,0-14.33-.63-20.28,0Z"/>
                <path class="cls-3" d="M210.43,301.71c6.21-.79,12.63-5.94,15.87-11.16l52.54-94.19c.24-.5.31-1.07-.21-1.42-1.35-.91-23.29,1.98-24.26,6.79l-42.17,76.22c-6.41,8.67-16.56,3.05-19.67,5.47-1.13.88-3.68,15.83-3.77,18.3,6.79-.63,15.06.84,21.67,0Z"/>
                <path class="cls-9" d="M189.36,38.11c-.82.36-.56,1.46-.56,2.12,0,1.29,2.84,15.13,3.36,15.75,1.34,1.59,10.64.5,13.39.92,4.87.75,6.78,4.58,9.14,8.37,14.2,22.78,25.1,49.62,39.68,72.43,3.02,5.17,17.69,7.91,22.86,7.39,1.49-.15,2.24-.21,1.57-2l-53.05-94.86c-2.76-5.15-10.13-10.13-16.11-10.13-2.71,0-19.3-.42-20.28,0Z"/>
                <path class="cls-9" d="M95.1,278.49c6.7,11.27,10.09,21.03,24.75,22.76,2.43.29,19.18.95,19.86.08.59-.76-2.75-17.78-4.82-18.3-5.4-1.34-13.99,2.36-18.24-4.42l-43.36-77.5c-1.05-3.88-22.23-6.43-23.28-5.76-.62.39-.25.62-.21,1.02.07.81,6.56,12.41,7.57,14.31,11.9,22.46,24.77,46,37.74,67.82Z"/>
              </g>
            </g>
          </g>
        </g>
      </g>
    </g>
    <g class="cls-7">
      <g>
        <g id="_Repetición_de_espejo_-4" data-name="&amp;lt;Repetición de espejo&amp;gt;">
          <g class="cls-1">
            <g>
              <path class="cls-6" d="M258.5,309.76c23.14-38.06,42.12-79.79,64.58-118.32,7.32-17.21,5.06-30.2-3.08-46.26-18.79-37.08-42.17-72.88-61.04-110-9.12-16.48-25.94-29.92-45.21-31.57-10.18-.88-21.34.73-31.62.12.36,2.8,2.86,20.43,3.85,21.46.85.9,18.18.1,21.07.33,14.79,1.16,25.3,8.42,32.6,21.06,18.7,36.85,42.01,71.75,60.45,108.67,6.51,13.04,7.07,17.92.57,31.36-18.6,38.45-43.45,75.59-62.16,114.18-4.99,9.63-16.18,15.68-26.83,16.54-30.31,2.46-63.63-1.58-94.25.33-14.79-1.32-21.99-8.68-29.27-20.49-17.18-27.88-33.95-60.49-49.69-89.51-4.71-8.67-15.27-25.32-15.57-34.59-.29-8.97,8.56-23.39,12.91-31.55,16.68-31.28,34.84-65.73,52.98-95.98,6.01-10.03,15.52-18.08,27.64-19.3,6.87-.69,15.71.9,22.26-.09.84-.13,1.75-.09,2.01-1.16l3.41-21.06c-12.91-.27-28.2-1.54-40.68,1.87-13.26,3.62-23.9,13.09-31.49,24.2-19.68,36.74-41.15,72.67-60.39,109.62-19.56,37.56-10.4,45.02,7.87,78.85,17.48,32.36,36.24,64.04,53.51,96.53,10.52,16.82,25.72,24.31,45.37,25.33,27.59,1.44,64.65,1.23,92.27-.32,24.92-1.39,35.61-9.97,47.94-30.25Z"/>
              <path class="cls-8" d="M289.55,172.61c1.55-2.24-.24-4.46-2.5-5.03-47.24-10.94-94.7-2.18-108.66-59.75-6.93-28.56-8.29-58.6-13.57-87.38-2.54-.86-3.09-.62-3.67,1.87-3.45,14.57-3.96,35.58-6.28,51.22-7.4,50.07-9.17,74.08-63.64,85.77-7.21,1.55-50.24,7.9-52.66,9.91-1.57,1.3-1.89,2.86-.38,4.39,1.92,1.94,46.63,8.37,53.59,9.87,51.97,11.16,55.03,31.04,63.12,78.48,1.59,9.33,3,29.85,5.7,37.34,1.63,4.53,6.41,3.42,7.66-1.29,7.68-29,2.87-71.88,25.28-95.34,22.5-23.55,63.99-20,92.55-28.54.89-.27,2.93-.78,3.45-1.52Z"/>
              <path class="cls-9" d="M210.01,303.02c7.31-.8,13.44-5.38,17.18-11.47,18.02-29.38,31.97-61.55,50.06-90.94.62-1.68,3.29-4.49-.02-4.81-4.38-.43-19.5,2.48-22.44,6.67l-43.45,78.88c-3.14,5.44-15.86,1.37-18.7,4.01-.62.57-3.9,15.32-3.79,16.43.04.47.63,1.3.9,1.3,6.21-.02,14.33.58,20.28-.07Z"/>
              <path class="cls-3" d="M117.25,39.74c-6.2.81-12.61,5.98-15.83,11.22l-52.21,94.37c-.24.5-.31,1.07.22,1.42,1.36.9,23.29-2.06,24.23-6.87l41.9-76.36c6.38-8.69,16.55-3.11,19.66-5.54,1.13-.88,3.63-15.84,3.7-18.31-6.79.65-15.07-.79-21.67.08Z"/>
              <path class="cls-9" d="M139.24,303.26c.82-.36.55-1.46.55-2.13,0-1.29-2.9-15.12-3.42-15.73-1.35-1.59-10.64-.46-13.39-.87-4.87-.73-6.79-4.56-9.17-8.34-14.28-22.73-25.28-49.53-39.93-72.29-3.04-5.16-17.71-7.85-22.89-7.31-1.49.15-2.24.22-1.56,2l53.38,94.67c2.78,5.14,10.17,10.09,16.15,10.07,2.71,0,19.3.36,20.28-.07Z"/>
              <path class="cls-9" d="M232.67,62.55c-6.74-11.24-10.16-21-24.83-22.68-2.43-.28-19.18-.89-19.86,0-.59.77,2.81,17.77,4.88,18.28,5.41,1.33,13.98-2.41,18.26,4.36l43.63,77.35c1.06,3.87,22.25,6.35,23.3,5.68.62-.4.25-.62.21-1.02-.08-.81-6.61-12.39-7.62-14.28-11.98-22.42-24.93-45.92-37.98-67.69Z"/>
            </g>
          </g>
        </g>
        <g id="_Repetición_de_espejo_-5" data-name="&amp;lt;Repetición de espejo&amp;gt;">
          <g class="cls-5">
            <g>
              <path class="cls-6" d="M70.62,310.42c-23.4-37.9-42.67-79.5-65.41-117.86-7.44-17.15-5.27-30.16,2.76-46.28,18.53-37.21,41.66-73.17,60.27-110.42,9.01-16.54,25.73-30.1,44.99-31.89,10.17-.95,21.34.58,31.62-.1-.34,2.8-2.72,20.45-3.7,21.49-.84.9-18.18.23-21.07.48-14.78,1.26-25.24,8.6-32.45,21.28-18.44,36.98-41.51,72.04-59.69,109.09-6.42,13.09-6.94,17.97-.35,31.37,18.86,38.32,43.97,75.29,62.96,113.75,5.06,9.6,16.29,15.56,26.95,16.35,30.32,2.24,63.62-2.02,94.25-.33,14.78-1.43,21.93-8.84,29.12-20.7,16.98-28,33.53-60.73,49.07-89.85,4.64-8.71,15.09-25.42,15.33-34.69.23-8.97-8.72-23.33-13.13-31.46-16.9-31.16-35.29-65.48-53.65-95.61-6.08-9.98-15.64-17.97-27.77-19.11-6.87-.64-15.7,1.01-22.26.06-.84-.12-1.75-.08-2.01-1.15l-3.56-21.03c12.91-.36,28.19-1.74,40.69,1.59,13.28,3.53,23.99,12.93,31.66,23.98,19.94,36.6,41.66,72.38,61.16,109.2,19.82,37.42,10.72,44.94-7.32,78.9-17.26,32.48-35.79,64.29-52.84,96.9-10.4,16.89-25.55,24.49-45.19,25.65-27.58,1.64-64.64,1.68-92.27.33-24.93-1.22-35.68-9.72-48.15-29.91Z"/>
              <path class="cls-8" d="M38.61,173.49c-1.57-2.23.21-4.46,2.46-5.05,47.16-11.27,94.68-2.84,108.24-60.5,6.73-28.61,7.88-58.65,12.95-87.47,2.53-.87,3.08-.64,3.69,1.84,3.55,14.54,4.21,35.55,6.63,51.17,7.75,50.02,9.69,74.02,64.24,85.33,7.23,1.5,50.29,7.55,52.73,9.54,1.58,1.29,1.91,2.85.41,4.39-1.91,1.95-46.57,8.7-53.52,10.24-51.89,11.52-54.81,31.43-62.57,78.92-1.53,9.35-2.79,29.87-5.44,37.38-1.6,4.54-6.39,3.47-7.67-1.24-7.89-28.95-3.37-71.86-25.95-95.16-22.66-23.39-64.12-19.56-92.75-27.89-.89-.26-2.94-.75-3.46-1.5Z"/>
              <path class="cls-3" d="M119.06,303.33c-7.32-.75-13.48-5.28-17.26-11.35-18.22-29.25-32.4-61.33-50.69-90.59-.63-1.68-3.32-4.46-.01-4.81,4.37-.46,19.51,2.34,22.49,6.52l44,78.57c3.17,5.42,15.87,1.26,18.73,3.88.62.57,4,15.29,3.91,16.4-.04.47-.62,1.3-.89,1.31-6.21.02-14.33.68-20.28.07Z"/>
              <path class="cls-3" d="M209.98,39.42c6.21.77,12.65,5.9,15.91,11.11l52.87,94c.24.5.31,1.07-.21,1.42-1.35.91-23.3-1.9-24.28-6.7l-42.44-76.07c-6.44-8.64-16.57-2.99-19.69-5.4-1.14-.88-3.74-15.82-3.83-18.29,6.79.6,15.06-.89,21.67-.08Z"/>
              <path class="cls-3" d="M189.83,303.09c-.82-.35-.56-1.46-.57-2.12,0-1.29,2.79-15.14,3.31-15.76,1.34-1.6,10.64-.53,13.39-.97,4.87-.77,6.76-4.61,9.11-8.4,14.12-22.83,24.93-49.7,39.42-72.57,3-5.18,17.66-7.97,22.84-7.47,1.49.14,2.24.21,1.57,1.99l-52.72,95.04c-2.74,5.16-10.1,10.16-16.08,10.18-2.71,0-19.3.49-20.28.07Z"/>
              <path class="cls-9" d="M94.72,63.04c6.66-11.29,10.02-21.07,24.67-22.85,2.43-.3,19.18-1.02,19.86-.15.59.76-2.68,17.79-4.75,18.31-5.4,1.36-14-2.31-18.23,4.48l-43.09,77.65c-1.03,3.88-22.21,6.51-23.26,5.85-.62-.39-.25-.62-.22-1.02.07-.81,6.52-12.43,7.52-14.34,11.82-22.5,24.61-46.09,37.5-67.95Z"/>
            </g>
          </g>
        </g>
      </g>
    </g>
  </g>
</svg>